<?xml version="1.0" encoding="UTF-8" standalone="no"?>
<!-- Generator: Adobe Illustrator 18.0.0, SVG Export Plug-In . SVG Version: 6.00 Build 0)  -->

<svg
   xmlns:dc="http://purl.org/dc/elements/1.1/"
   xmlns:cc="http://creativecommons.org/ns#"
   xmlns:rdf="http://www.w3.org/1999/02/22-rdf-syntax-ns#"
   xmlns:svg="http://www.w3.org/2000/svg"
   xmlns="http://www.w3.org/2000/svg"
   xmlns:sodipodi="http://sodipodi.sourceforge.net/DTD/sodipodi-0.dtd"
   xmlns:inkscape="http://www.inkscape.org/namespaces/inkscape"
   version="1.1"
   id="Capa_1"
   x="0px"
   y="0px"
   viewBox="0 0 480.825 480.825"
   style="enable-background:new 0 0 480.825 480.825;"
   xml:space="preserve"
   sodipodi:docname="car-crash-svgrepo-com.svg"
   inkscape:version="0.92.3 (2405546, 2018-03-11)"><metadata
   id="metadata53"><rdf:RDF><cc:Work
       rdf:about=""><dc:format>image/svg+xml</dc:format><dc:type
         rdf:resource="http://purl.org/dc/dcmitype/StillImage" /></cc:Work></rdf:RDF></metadata><defs
   id="defs51" /><sodipodi:namedview
   pagecolor="#ffffff"
   bordercolor="#666666"
   borderopacity="1"
   objecttolerance="10"
   gridtolerance="10"
   guidetolerance="10"
   inkscape:pageopacity="0"
   inkscape:pageshadow="2"
   inkscape:window-width="1366"
   inkscape:window-height="719"
   id="namedview49"
   showgrid="false"
   inkscape:zoom="0.49082305"
   inkscape:cx="240.41251"
   inkscape:cy="240.41251"
   inkscape:window-x="0"
   inkscape:window-y="25"
   inkscape:window-maximized="1"
   inkscape:current-layer="Capa_1" />
<g
   id="g16"
   transform="matrix(0.51705689,0,0,0.51705689,0,69.245641)"
   inkscape:export-filename="/home/bartlomiej/AndroidStudioProjects/GaslandsBuilder/pngs/carCrash.png"
   inkscape:export-xdpi="96"
   inkscape:export-ydpi="96">
	<path
   d="m 290.207,188.296 c -2.823,-1.735 -6.519,-0.856 -8.254,1.966 l -45.567,74.047 c -1.737,2.822 -0.857,6.518 1.965,8.255 0.98,0.603 2.066,0.891 3.139,0.891 2.015,0 3.982,-1.015 5.116,-2.856 l 45.567,-74.047 c 1.736,-2.823 0.856,-6.519 -1.966,-8.256 z"
   id="path2"
   inkscape:connector-curvature="0" />
	<path
   d="m 222.466,244.96 c 1.166,1.676 3.033,2.574 4.931,2.574 1.182,0 2.377,-0.35 3.421,-1.075 2.72,-1.893 3.392,-5.632 1.499,-8.352 L 198.142,188.98 c -1.892,-2.719 -5.631,-3.39 -8.352,-1.499 -2.72,1.893 -3.392,5.632 -1.499,8.353 z"
   id="path4"
   inkscape:connector-curvature="0" />
	<path
   d="m 240.793,227.091 c 0.52,0.139 1.04,0.205 1.554,0.205 2.65,0 5.076,-1.77 5.793,-4.452 l 19.224,-71.91 c 0.856,-3.201 -1.045,-6.49 -4.247,-7.347 -3.204,-0.854 -6.491,1.046 -7.346,4.247 l -19.224,71.91 c -0.857,3.201 1.045,6.49 4.246,7.347 z"
   id="path6"
   inkscape:connector-curvature="0" />
	<path
   d="m 274.393,249.834 c 1.03,2.154 3.178,3.412 5.417,3.412 0.868,0 1.749,-0.189 2.584,-0.588 l 16.375,-7.831 c 2.99,-1.43 4.254,-5.012 2.825,-8.002 -1.429,-2.989 -5.012,-4.253 -8.001,-2.824 l -16.375,7.831 c -2.99,1.43 -4.254,5.012 -2.825,8.002 z"
   id="path8"
   inkscape:connector-curvature="0" />
	<path
   d="m 221.889,201.065 c 0.716,2.685 3.141,4.456 5.793,4.456 0.512,0 1.032,-0.066 1.55,-0.204 3.202,-0.855 5.105,-4.142 4.251,-7.344 l -11.391,-42.72 c -0.854,-3.201 -4.141,-5.103 -7.343,-4.252 -3.202,0.854 -5.105,4.142 -4.251,7.344 z"
   id="path10"
   inkscape:connector-curvature="0" />
	<path
   d="m 234.214,287.646 h -0.403 v -5.336 c 0,-4.824 -3.917,-7.322 -7.247,-8.35 l -4.479,-8.423 c -0.61,-1.148 -1.741,-1.928 -3.031,-2.091 l -34.26,-4.324 -31.767,-50.333 c -0.733,-1.161 -2.01,-1.865 -3.383,-1.865 H 60.69 c -1.641,0 -3.115,1.002 -3.719,2.527 l -18.482,46.66 H 21.128 c -8.945,0 -14.075,5.13 -14.075,14.075 v 17.713 C 3.012,288.872 0,292.517 0,296.852 v 6.92 c 0,5.076 4.13,9.205 9.206,9.205 h 20.963 c 2.054,13.824 13.998,24.466 28.384,24.466 14.387,0 26.332,-10.642 28.386,-24.466 l 69.541,0.001 c 2.054,13.824 13.998,24.465 28.383,24.465 14.387,0 26.332,-10.641 28.386,-24.465 h 20.964 c 5.076,0 9.205,-4.13 9.205,-9.206 v -6.92 c 0.001,-5.077 -4.128,-9.206 -9.204,-9.206 z M 58.553,319.442 c -5.899,0 -10.698,-4.8 -10.698,-10.7 0,-5.9 4.799,-10.7 10.698,-10.7 5.9,0 10.7,4.8 10.7,10.7 0,5.901 -4.8,10.7 -10.7,10.7 z m 126.311,0 c -5.899,0 -10.698,-4.8 -10.698,-10.7 0,-5.9 4.799,-10.7 10.698,-10.7 5.9,0 10.701,4.8 10.701,10.7 -0.001,5.901 -4.801,10.7 -10.701,10.7 z"
   id="path12"
   inkscape:connector-curvature="0" />
	<path
   d="m 473.772,287.899 v -17.713 c 0,-8.945 -5.13,-14.075 -14.076,-14.075 h -17.361 l -18.482,-46.66 c -0.604,-1.525 -2.078,-2.527 -3.719,-2.527 h -76.493 c -1.373,0 -2.65,0.704 -3.383,1.865 l -31.767,50.333 -34.26,4.324 c -1.29,0.163 -2.42,0.942 -3.031,2.091 l -4.479,8.423 c -3.331,1.027 -7.247,3.525 -7.247,8.35 v 5.336 h -0.403 c -5.076,0 -9.206,4.13 -9.206,9.206 v 6.92 c 0,5.076 4.129,9.206 9.206,9.206 h 20.964 c 2.054,13.824 13.999,24.465 28.386,24.465 14.385,0 26.33,-10.641 28.383,-24.465 l 57.081,-0.001 c 2.054,13.824 13.999,24.466 28.386,24.466 14.386,0 26.33,-10.642 28.384,-24.466 h 20.963 c 5.076,0 9.206,-4.129 9.206,-9.205 v -6.92 c 10e-4,-4.335 -3.01,-7.98 -7.052,-8.953 z m -165.35,31.543 c -5.9,0 -10.701,-4.8 -10.701,-10.7 0,-5.9 4.8,-10.7 10.701,-10.7 5.899,0 10.698,4.8 10.698,10.7 10e-4,5.901 -4.799,10.7 -10.698,10.7 z m 113.85,0 c -5.9,0 -10.7,-4.8 -10.7,-10.7 0,-5.9 4.8,-10.7 10.7,-10.7 5.899,0 10.698,4.8 10.698,10.7 0,5.901 -4.799,10.7 -10.698,10.7 z"
   id="path14"
   inkscape:connector-curvature="0" />
</g>
<g
   id="g18">
</g>
<g
   id="g20">
</g>
<g
   id="g22">
</g>
<g
   id="g24">
</g>
<g
   id="g26">
</g>
<g
   id="g28">
</g>
<g
   id="g30">
</g>
<g
   id="g32">
</g>
<g
   id="g34">
</g>
<g
   id="g36">
</g>
<g
   id="g38">
</g>
<g
   id="g40">
</g>
<g
   id="g42">
</g>
<g
   id="g44">
</g>
<g
   id="g46">
</g>
</svg>