<?xml version="1.0" encoding="iso-8859-1"?>
<!-- Generator: Adobe Illustrator 19.0.0, SVG Export Plug-In . SVG Version: 6.00 Build 0)  -->
<svg version="1.1" id="Layer_1" xmlns="http://www.w3.org/2000/svg" xmlns:xlink="http://www.w3.org/1999/xlink" x="0px" y="0px"
	 viewBox="0 0 512 512" style="enable-background:new 0 0 512 512;" xml:space="preserve">
<g>
	<g>
		<g>
			<path d="M392.081,272.162c-30.813,0-55.881,25.068-55.881,55.881c0,30.813,25.068,55.881,55.881,55.881
				c30.813,0,55.881-25.068,55.881-55.881C447.962,297.23,422.893,272.162,392.081,272.162z M392.081,368.218
				c-22.153,0-40.176-18.023-40.176-40.176c0-22.153,18.023-40.176,40.176-40.176s40.176,18.023,40.176,40.176
				C432.257,350.195,414.233,368.218,392.081,368.218z"/>
			<path d="M392.081,296.176c-17.571,0-31.868,14.295-31.868,31.868c0,17.571,14.295,31.866,31.868,31.866
				s31.868-14.295,31.868-31.866C423.948,310.471,409.652,296.176,392.081,296.176z M392.081,344.204
				c-8.911,0-16.162-7.25-16.162-16.161c0-8.911,7.25-16.162,16.162-16.162s16.162,7.25,16.162,16.162
				C408.242,336.954,400.992,344.204,392.081,344.204z"/>
			<path d="M119.919,272.162c-30.813,0-55.881,25.068-55.881,55.881c0,30.813,25.068,55.881,55.881,55.881
				c30.813,0,55.881-25.068,55.881-55.881C175.8,297.23,150.732,272.162,119.919,272.162z M119.919,368.218
				c-22.153,0-40.176-18.023-40.176-40.176c0-22.153,18.023-40.176,40.176-40.176c22.153,0,40.176,18.023,40.176,40.176
				C160.095,350.195,142.072,368.218,119.919,368.218z"/>
			<path d="M119.919,296.176c-17.571,0-31.868,14.295-31.868,31.868c0,17.571,14.295,31.866,31.868,31.866
				s31.868-14.295,31.868-31.866C151.787,310.471,137.49,296.176,119.919,296.176z M119.919,344.204
				c-8.911,0-16.162-7.25-16.162-16.161c0-8.911,7.25-16.162,16.162-16.162s16.162,7.25,16.162,16.162
				C136.081,336.954,128.83,344.204,119.919,344.204z"/>
			<rect x="183.954" y="320.194" width="144.082" height="15.706"/>
			<rect x="472.276" y="199.963" width="15.706" height="16.01"/>
			<rect x="223.982" y="256.157" width="24.015" height="15.706"/>
			<rect x="192.11" y="256" width="15.706" height="48.029"/>
			<path d="M495.99,304.181v-0.001v-80.048H364.264l-64.039-96.057H155.741l-64.039,96.057H63.734v-64.19H48.029v64.19H16.01v80.048
				H0v47.725h55.729V304.18H31.716v-16.314H71.74v-39.719H31.716v-8.309h152.242v-15.706h-73.38l53.568-80.352h127.675
				l53.568,80.352H207.82v-72.195h-15.706v87.901h288.171v8.309h-40.024v39.72h40.024v16.314h-24.014v47.725H512v-47.725H495.99z
				 M40.024,319.886V336.2H15.706v-16.314H40.024z M56.033,263.853v8.309H31.716v-8.309H56.033z M455.967,272.162v-8.309h24.318
				v8.309H455.967z M496.294,336.2h-24.318v-16.314h24.318V336.2z"/>
			<rect x="48.029" y="135.926" width="15.706" height="16.009"/>
			
				<rect x="240.141" y="156.638" transform="matrix(-0.7071 -0.7071 0.7071 -0.7071 304.587 462.0808)" width="15.705" height="22.641"/>
			
				<rect x="239.703" y="180.109" transform="matrix(-0.7071 0.7071 -0.7071 -0.7071 590.4207 131.3625)" width="56.602" height="15.705"/>
		</g>
	</g>
</g>
<g>
</g>
<g>
</g>
<g>
</g>
<g>
</g>
<g>
</g>
<g>
</g>
<g>
</g>
<g>
</g>
<g>
</g>
<g>
</g>
<g>
</g>
<g>
</g>
<g>
</g>
<g>
</g>
<g>
</g>
</svg>
