<?xml version="1.0" encoding="iso-8859-1"?>
<!-- Generator: Adobe Illustrator 19.0.0, SVG Export Plug-In . SVG Version: 6.00 Build 0)  -->
<svg version="1.1" id="Layer_1" xmlns="http://www.w3.org/2000/svg" xmlns:xlink="http://www.w3.org/1999/xlink" x="0px" y="0px"
	 viewBox="0 0 512 512" style="enable-background:new 0 0 512 512;" xml:space="preserve">
<g>
	<g>
		<path d="M97.095,419.807c-3.294-3.294-8.634-3.294-11.927,0l-36.18,36.18c-3.294,3.294-3.294,8.634,0,11.927
			c1.646,1.646,3.806,2.471,5.964,2.471s4.317-0.823,5.964-2.471l36.18-36.18C100.389,428.44,100.389,423.1,97.095,419.807z"/>
	</g>
</g>
<g>
	<g>
		<path d="M501.739,221.789l-112.814-88.241l12.331-12.331c1.735-1.735,2.629-4.142,2.447-6.59l-1.843-24.766l75.464-75.464
			c3.294-3.294,3.294-8.633,0-11.927s-8.634-3.294-11.927,0l-29.024,29.024l-16.302-16.302c-3.294-3.294-8.634-3.294-11.927,0
			c-3.294,3.294-3.294,8.634,0,11.927l16.302,16.302L286.809,181.058c-0.515,0.02-1.031,0.071-1.543,0.188l-37.109,8.481
			c-1.546,0.353-2.962,1.137-4.084,2.258l-73.687,73.687l-5.434-5.434c-3.294-3.294-8.634-3.294-11.927,0
			c-3.294,3.294-3.294,8.634,0,11.927l5.434,5.434l-52.747,52.747c-3.294,3.294-3.294,8.634,0,11.927l10.073,10.073L9.493,458.638
			c-1.77,1.77-2.663,4.235-2.436,6.727c0.227,2.492,1.549,4.756,3.609,6.178l56.457,38.964c1.453,1.002,3.125,1.492,4.788,1.492
			c2.176,0,4.335-0.839,5.967-2.471l53.674-53.674c2.232-2.232,3.031-5.524,2.07-8.53l-12.616-39.501l32.512-32.513l23.779,37.729
			c1.261,1.999,3.302,3.378,5.627,3.801c0.502,0.091,1.006,0.136,1.508,0.136c1.827,0,3.62-0.594,5.098-1.715l23.06-17.494
			c3.71-2.814,4.436-8.101,1.625-11.812c-5.29-6.982-10.518-15.023-14.731-22.682l15.677-15.679c8.705-8.705,8.705-22.87,0-31.575
			l-1.176-1.176l9.145-9.145l58.314,58.313c1.646,1.646,3.806,2.471,5.964,2.471s4.317-0.823,5.964-2.471l36.976-36.976
			c3.294-3.294,3.294-8.634,0-11.927l-58.314-58.313l41.216-41.217c2.287-2.286,2.982-5.56,2.094-8.45l58.744-58.744l37.484,70.11
			c2.196,4.108,7.309,5.655,11.414,3.461c4.108-2.196,5.658-7.307,3.461-11.414l-24.099-45.075l88.995,69.61
			c1.543,1.207,3.374,1.791,5.191,1.791c2.505,0,4.985-1.112,6.649-3.239C506.056,229.96,505.409,224.659,501.739,221.789z
			 M105.445,399.53c-2.232,2.232-3.031,5.524-2.07,8.53l12.616,39.501l-45.07,45.071L28.578,463.41l99.001-99.001l6.493,6.494
			L105.445,399.53z M186.664,396.262L165.75,363.08l10.443-10.443c2.044,6.105,5.251,12.986,9.661,20.721
			c3.539,6.208,7.205,11.818,10.018,15.92L186.664,396.262z M203.236,335.668l-11.237,11.237c-1.099-3.293-1.7-6.161-1.671-8.402
			l11.731-11.731l1.176,1.175c1.031,1.031,1.599,2.402,1.599,3.861C204.835,333.266,204.267,334.636,203.236,335.668z
			 M192.783,312.192l-5.567-5.567l76.072-76.073l5.567,5.567L192.783,312.192z M235.06,293.771l25.048-25.048l11.397,11.397
			l-25.048,25.048L235.06,293.771z M283.434,292.048l29.025,29.025L287.41,346.12l-29.025-29.024L283.434,292.048z M280.783,224.191
			l-11.53-11.53c-1.581-1.582-3.727-2.471-5.964-2.471s-4.382,0.888-5.964,2.471l-88.001,88.001c-3.294,3.294-3.294,8.634,0,11.927
			l11.53,11.53l-34.723,34.723l-22.531-22.531L254.283,205.63l30.196-6.901l10.883,10.883L280.783,224.191z M304.111,194.507
			l-3.449-3.449l85.454-85.454l0.478,6.42L304.111,194.507z"/>
	</g>
</g>
<g>
</g>
<g>
</g>
<g>
</g>
<g>
</g>
<g>
</g>
<g>
</g>
<g>
</g>
<g>
</g>
<g>
</g>
<g>
</g>
<g>
</g>
<g>
</g>
<g>
</g>
<g>
</g>
<g>
</g>
</svg>
