<?xml version="1.0" encoding="UTF-8" standalone="no"?>
<!-- Created with Inkscape (http://www.inkscape.org/) -->

<svg
   xmlns:dc="http://purl.org/dc/elements/1.1/"
   xmlns:cc="http://creativecommons.org/ns#"
   xmlns:rdf="http://www.w3.org/1999/02/22-rdf-syntax-ns#"
   xmlns:svg="http://www.w3.org/2000/svg"
   xmlns="http://www.w3.org/2000/svg"
   xmlns:sodipodi="http://sodipodi.sourceforge.net/DTD/sodipodi-0.dtd"
   xmlns:inkscape="http://www.inkscape.org/namespaces/inkscape"
   width="210mm"
   height="297mm"
   viewBox="0 0 210 297"
   version="1.1"
   id="svg8"
   inkscape:export-filename="/home/bartlomiej/AndroidStudioProjects/GaslandsBuilder/pngs/car.png"
   inkscape:export-xdpi="96"
   inkscape:export-ydpi="96"
   inkscape:version="0.92.3 (2405546, 2018-03-11)"
   sodipodi:docname="mg1.svg">
  <defs
     id="defs2">
	

		
	</defs>
  <sodipodi:namedview
     id="base"
     pagecolor="#ffffff"
     bordercolor="#666666"
     borderopacity="1.0"
     inkscape:pageopacity="0.0"
     inkscape:pageshadow="2"
     inkscape:zoom="0.7"
     inkscape:cx="252.60943"
     inkscape:cy="966.6947"
     inkscape:document-units="mm"
     inkscape:current-layer="layer1"
     showgrid="false"
     inkscape:window-width="1366"
     inkscape:window-height="719"
     inkscape:window-x="0"
     inkscape:window-y="25"
     inkscape:window-maximized="1" />
  <metadata
     id="metadata5">
    <rdf:RDF>
      <cc:Work
         rdf:about="">
        <dc:format>image/svg+xml</dc:format>
        <dc:type
           rdf:resource="http://purl.org/dc/dcmitype/StillImage" />
        <dc:title></dc:title>
      </cc:Work>
    </rdf:RDF>
  </metadata>
  <g
     inkscape:label="Layer 1"
     inkscape:groupmode="layer"
     id="layer1">
    <g
       id="g918"
       transform="matrix(0.08373043,0.08373043,-0.08373043,0.08373043,62.636551,13.359281)">
	<g
   id="g916">
		<path
   inkscape:connector-curvature="0"
   d="m 97.095,419.807 c -3.294,-3.294 -8.634,-3.294 -11.927,0 l -36.18,36.18 c -3.294,3.294 -3.294,8.634 0,11.927 1.646,1.646 3.806,2.471 5.964,2.471 2.158,0 4.317,-0.823 5.964,-2.471 l 36.18,-36.18 c 3.293,-3.294 3.293,-8.634 -0.001,-11.927 z"
   id="path914" />

	</g>

</g>
    <path
       inkscape:connector-curvature="0"
       d="m 86.084337,57.10617 c 0.290544,0 0.566939,-0.126684 0.756672,-0.346895 l 1.919352,-2.227983 h 12.637269 c 0.55161,0 0.99865,-0.447037 0.99865,-0.998653 0,-0.551616 -0.44712,-0.998737 -0.99865,-0.998653 h -4.860386 v -2.729947 c 0,-0.551616 -0.447121,-0.998736 -0.998653,-0.998653 -0.551616,0 -0.998737,0.447121 -0.998653,0.998653 v 2.729947 h -23.04881 c -0.0448,-0.04145 -0.09227,-0.08038 -0.144938,-0.113455 l -3.81727,-2.397034 c -0.159004,-0.09989 -0.343211,-0.152808 -0.531018,-0.152892 H 54.658213 v -0.909982 c 0,-0.551617 -0.44712,-0.998737 -0.998653,-0.998653 -0.551616,0 -0.998736,0.44712 -0.998652,0.998653 v 0.909982 H 43.82785 c -0.551616,0 -0.998737,0.44712 -0.998653,0.998653 v 1.686833 h -17.79975 c -0.296406,0 -0.577572,0.131624 -0.767222,0.359287 -0.189649,0.227663 -0.268523,0.527921 -0.215103,0.81947 l 1.464696,7.989641 c 0.03776,0.205558 0.136732,0.386584 0.275976,0.525827 0.182197,0.182198 0.433221,0.292722 0.706517,0.292722 h 8.988294 c 0.373773,0 0.716314,-0.20874 0.887543,-0.540899 l 2.251092,-4.363778 5.444571,-8.4e-5 -1.168039,5.150091 c -0.06179,0.272961 -0.0064,0.559319 0.152892,0.789411 0.03441,0.04965 0.07285,0.09562 0.114878,0.137652 0.152975,0.152976 0.35284,0.253369 0.570455,0.28326 l 3.395604,0.466044 c 0.546257,0.07502 1.049729,-0.306872 1.125086,-0.852962 0.141672,-1.02754 0.377206,-2.138559 0.665741,-3.132606 l 2.625451,-1.68e-4 c 1.457747,0 2.643788,-1.186041 2.643788,-2.643788 v -0.196934 h 1.53143 l 8.4e-5,9.765229 c 0,0.27564 0.11178,0.525576 0.29247,0.706266 0.18069,0.18069 0.430374,0.292554 0.706266,0.29247 h 6.192033 c 0.551616,0 0.998736,-0.44712 0.998653,-0.998653 l -8.4e-5,-9.765228 6.902151,-8.4e-5 c 0.382899,8.4e-5 0.715225,-0.215857 0.882853,-0.532191 21.084471,-0.106616 0,0 14.386814,8.4e-5 z m -48.07165,-1.465115 c -0.373772,0 -0.716313,0.20874 -0.887542,0.540898 l -2.251093,4.363779 -7.547544,8.4e-5 -1.098627,-5.992168 h 16.578792 l -8.3e-5,1.087407 z m 7.074133,6.526871 1.027205,-4.529482 h 1.748794 c -0.340029,0.68232 -0.647655,1.526992 -0.926059,2.543898 -0.223476,0.816121 -0.386248,1.592804 -0.494177,2.1718 z m 6.461143,-3.685981 h -1.881758 c 0.183705,-0.367744 0.373521,-0.658205 0.56359,-0.843417 h 1.964483 l 8.4e-5,0.19685 c 0,0.172652 -0.06724,0.335006 -0.189399,0.457168 -0.121995,0.122163 -0.284264,0.189315 -0.457,0.189399 z m 1.090421,-2.84089 V 54.7088 l 12.739166,-8.3e-5 v 0.932254 z m 5.08227,1.997473 h 4.194559 v 1.908551 h -4.194559 z m 4.194643,3.906108 v 4.860552 l -4.19456,-1.68e-4 -8.3e-5,-4.860467 z m 5.459726,-5.903665 v -1.930824 c 8.4e-5,-0.264839 -0.105165,-0.518961 -0.29247,-0.706266 -0.187305,-0.187305 -0.441259,-0.292554 -0.706266,-0.29247 H 51.639564 c -0.551616,0 -0.998737,0.44712 -0.998653,0.998653 v 1.930823 h -5.814743 v -3.77306 l 21.88412,1.67e-4 3.106147,1.950501 v 1.822476 z m 4.438718,-0.53219 v -0.577573 h 14.3102 l -0.497526,0.577573 z"
       id="path920"
       style="stroke-width:0.11841271"
       sodipodi:nodetypes="cccssccsccccccccscccsccsccccsscccccccccccscccscscccccsccccccsccccccccccccccccccccccccccccccscsccccccccccccc" />
    <g
       id="g926"
       transform="matrix(0.08373043,0.08373043,-0.08373043,0.08373043,62.636551,13.359281)">
</g>
    <g
       id="g928"
       transform="matrix(0.08373043,0.08373043,-0.08373043,0.08373043,62.636551,13.359281)">
</g>
    <g
       id="g930"
       transform="matrix(0.08373043,0.08373043,-0.08373043,0.08373043,62.636551,13.359281)">
</g>
    <g
       id="g932"
       transform="matrix(0.08373043,0.08373043,-0.08373043,0.08373043,62.636551,13.359281)">
</g>
    <g
       id="g934"
       transform="matrix(0.08373043,0.08373043,-0.08373043,0.08373043,62.636551,13.359281)">
</g>
    <g
       id="g936"
       transform="matrix(0.08373043,0.08373043,-0.08373043,0.08373043,62.636551,13.359281)">
</g>
    <g
       id="g938"
       transform="matrix(0.08373043,0.08373043,-0.08373043,0.08373043,62.636551,13.359281)">
</g>
    <g
       id="g940"
       transform="matrix(0.08373043,0.08373043,-0.08373043,0.08373043,62.636551,13.359281)">
</g>
    <g
       id="g942"
       transform="matrix(0.08373043,0.08373043,-0.08373043,0.08373043,62.636551,13.359281)">
</g>
    <g
       id="g944"
       transform="matrix(0.08373043,0.08373043,-0.08373043,0.08373043,62.636551,13.359281)">
</g>
    <g
       id="g946"
       transform="matrix(0.08373043,0.08373043,-0.08373043,0.08373043,62.636551,13.359281)">
</g>
    <g
       id="g948"
       transform="matrix(0.08373043,0.08373043,-0.08373043,0.08373043,62.636551,13.359281)">
</g>
    <g
       id="g950"
       transform="matrix(0.08373043,0.08373043,-0.08373043,0.08373043,62.636551,13.359281)">
</g>
    <g
       id="g952"
       transform="matrix(0.08373043,0.08373043,-0.08373043,0.08373043,62.636551,13.359281)">
</g>
    <g
       id="g954"
       transform="matrix(0.08373043,0.08373043,-0.08373043,0.08373043,62.636551,13.359281)">
</g>
  </g>
</svg>
