<?xml version="1.0" encoding="UTF-8" standalone="no"?>
<!-- Created with Inkscape (http://www.inkscape.org/) -->

<svg
   xmlns:dc="http://purl.org/dc/elements/1.1/"
   xmlns:cc="http://creativecommons.org/ns#"
   xmlns:rdf="http://www.w3.org/1999/02/22-rdf-syntax-ns#"
   xmlns:svg="http://www.w3.org/2000/svg"
   xmlns="http://www.w3.org/2000/svg"
   xmlns:sodipodi="http://sodipodi.sourceforge.net/DTD/sodipodi-0.dtd"
   xmlns:inkscape="http://www.inkscape.org/namespaces/inkscape"
   version="1.1"
   id="svg2"
   xml:space="preserve"
   width="609.93335"
   height="727.32001"
   viewBox="0 0 609.93335 727.32001"
   sodipodi:docname="piston_delete.svg"
   inkscape:version="0.92.5 (2060ec1f9f, 2020-04-08)"><metadata
     id="metadata8"><rdf:RDF><cc:Work
         rdf:about=""><dc:format>image/svg+xml</dc:format><dc:type
           rdf:resource="http://purl.org/dc/dcmitype/StillImage" /><dc:title></dc:title></cc:Work></rdf:RDF></metadata><defs
     id="defs6">
	
	
	

	
	
	
</defs><sodipodi:namedview
     pagecolor="#ffffff"
     bordercolor="#666666"
     borderopacity="1"
     objecttolerance="10"
     gridtolerance="10"
     guidetolerance="10"
     inkscape:pageopacity="0"
     inkscape:pageshadow="2"
     inkscape:window-width="1920"
     inkscape:window-height="1053"
     id="namedview4"
     showgrid="false"
     inkscape:zoom="0.91776494"
     inkscape:cx="378.38896"
     inkscape:cy="463.8643"
     inkscape:window-x="1366"
     inkscape:window-y="0"
     inkscape:window-maximized="1"
     inkscape:current-layer="g10" /><g
     id="g10"
     inkscape:groupmode="layer"
     inkscape:label="ink_ext_XXXXXX"
     transform="matrix(1.3333333,0,0,-1.3333333,0,727.32)"><g
       style="fill:#aa0000"
       id="g3803"
       transform="matrix(0.75000002,0,0,-0.75000002,-3.9849989,477.9622)">
</g><g
       style="fill:#aa0000"
       id="g3805"
       transform="matrix(0.75000002,0,0,-0.75000002,-3.9849989,477.9622)">
</g><g
       style="fill:#aa0000"
       id="g3807"
       transform="matrix(0.75000002,0,0,-0.75000002,-3.9849989,477.9622)">
</g><g
       style="fill:#aa0000"
       id="g3809"
       transform="matrix(0.75000002,0,0,-0.75000002,-3.9849989,477.9622)">
</g><g
       style="fill:#aa0000"
       id="g3811"
       transform="matrix(0.75000002,0,0,-0.75000002,-3.9849989,477.9622)">
</g><g
       style="fill:#aa0000"
       id="g3813"
       transform="matrix(0.75000002,0,0,-0.75000002,-3.9849989,477.9622)">
</g><g
       style="fill:#aa0000"
       id="g3815"
       transform="matrix(0.75000002,0,0,-0.75000002,-3.9849989,477.9622)">
</g><g
       style="fill:#aa0000"
       id="g3817"
       transform="matrix(0.75000002,0,0,-0.75000002,-3.9849989,477.9622)">
</g><g
       style="fill:#aa0000"
       id="g3819"
       transform="matrix(0.75000002,0,0,-0.75000002,-3.9849989,477.9622)">
</g><g
       style="fill:#aa0000"
       id="g3821"
       transform="matrix(0.75000002,0,0,-0.75000002,-3.9849989,477.9622)">
</g><g
       style="fill:#aa0000"
       id="g3823"
       transform="matrix(0.75000002,0,0,-0.75000002,-3.9849989,477.9622)">
</g><g
       style="fill:#aa0000"
       id="g3825"
       transform="matrix(0.75000002,0,0,-0.75000002,-3.9849989,477.9622)">
</g><g
       style="fill:#aa0000"
       id="g3827"
       transform="matrix(0.75000002,0,0,-0.75000002,-3.9849989,477.9622)">
</g><g
       style="fill:#aa0000"
       id="g3829"
       transform="matrix(0.75000002,0,0,-0.75000002,-3.9849989,477.9622)">
</g><g
       style="fill:#aa0000"
       id="g3831"
       transform="matrix(0.75000002,0,0,-0.75000002,-3.9849989,477.9622)">
</g><g
       id="g3869"
       style="fill:#aa0000"
       transform="matrix(0.75000002,0,0,-0.75000002,42.59556,500.02667)">
</g><g
       id="g3871"
       style="fill:#aa0000"
       transform="matrix(0.75000002,0,0,-0.75000002,42.59556,500.02667)">
</g><g
       id="g3873"
       style="fill:#aa0000"
       transform="matrix(0.75000002,0,0,-0.75000002,42.59556,500.02667)">
</g><g
       id="g3875"
       style="fill:#aa0000"
       transform="matrix(0.75000002,0,0,-0.75000002,42.59556,500.02667)">
</g><g
       id="g3877"
       style="fill:#aa0000"
       transform="matrix(0.75000002,0,0,-0.75000002,42.59556,500.02667)">
</g><g
       id="g3879"
       style="fill:#aa0000"
       transform="matrix(0.75000002,0,0,-0.75000002,42.59556,500.02667)">
</g><g
       id="g3881"
       style="fill:#aa0000"
       transform="matrix(0.75000002,0,0,-0.75000002,42.59556,500.02667)">
</g><g
       id="g3883"
       style="fill:#aa0000"
       transform="matrix(0.75000002,0,0,-0.75000002,42.59556,500.02667)">
</g><g
       id="g3885"
       style="fill:#aa0000"
       transform="matrix(0.75000002,0,0,-0.75000002,42.59556,500.02667)">
</g><g
       id="g3887"
       style="fill:#aa0000"
       transform="matrix(0.75000002,0,0,-0.75000002,42.59556,500.02667)">
</g><g
       id="g3889"
       style="fill:#aa0000"
       transform="matrix(0.75000002,0,0,-0.75000002,42.59556,500.02667)">
</g><g
       id="g3891"
       style="fill:#aa0000"
       transform="matrix(0.75000002,0,0,-0.75000002,42.59556,500.02667)">
</g><g
       id="g3893"
       style="fill:#aa0000"
       transform="matrix(0.75000002,0,0,-0.75000002,42.59556,500.02667)">
</g><g
       id="g3895"
       style="fill:#aa0000"
       transform="matrix(0.75000002,0,0,-0.75000002,42.59556,500.02667)">
</g><g
       id="g3897"
       style="fill:#aa0000"
       transform="matrix(0.75000002,0,0,-0.75000002,42.59556,500.02667)">
</g><g
       id="g4902"><g
         transform="translate(-134.31413)"
         id="g4887"><g
           transform="matrix(0.75000002,0,0,-0.75000002,164.85569,944.75022)"
           inkscape:label="Layer 1"
           id="layer1"
           inkscape:export-filename="/home/bartek/AndroidStudioProjects/GaslandsBuilder/pngs/piston_remove.png"
           inkscape:export-xdpi="96"
           inkscape:export-ydpi="96"><path
             d="m 444.27912,437.45515 -8.125,46.281 0.0313,0.031 c -9.9316,1.6228 -19.54,4.2238 -28.719,7.6875 v -0.031 l -30.156,-36.031 -28.344,16.375 16.094,44.125 0.0624,0.031 c -7.6842,6.3076 -14.727,13.375 -21.031,21.063 l -0.0312,-0.094 -44.125,-16.094 -16.375,28.344 36.031,30.188 c -3.458,9.1707 -6.0358,18.765 -7.6562,28.688 l -0.0313,-0.031 -46.281,8.125 v 32.75 l 46.281,8.125 0.0313,-0.031 c 1.6203,9.9223 4.1982,19.517 7.6562,28.688 l -36.031,30.188 16.375,28.344 44.125,-16.094 0.0312,-0.094 c 6.3041,7.687 13.347,14.755 21.031,21.062 l -0.0624,0.031 -16.094,44.125 28.344,16.375 30.156,-36.031 v -0.0312 c 9.1783,3.4637 18.787,6.0647 28.719,7.6875 l -0.0313,0.031 8.125,46.281 h 32.719 l 8.125,-46.281 -0.0312,-0.031 c 9.9296,-1.6184 19.541,-4.1977 28.719,-7.6563 l 30.187,36.031 28.344,-16.375 -16.125,-44.125 c 7.6669,-6.2915 14.706,-13.335 21,-21 l 44.156,16.094 16.344,-28.344 -36,-30.188 c 3.4588,-9.1719 6.0668,-18.764 7.6875,-28.688 l 46.281,-8.0937 v -32.75 l -46.281,-8.125 c -1.621,-9.9131 -4.2322,-19.494 -7.6875,-28.656 l 36,-30.188 -16.344,-28.344 -44.156,16.094 c -6.2938,-7.6652 -13.333,-14.708 -21,-21 l 16.125,-44.125 -28.344,-16.375 -30.187,36.031 c -9.1775,-3.4583 -18.789,-6.0378 -28.719,-7.6562 l 0.0312,-0.031 -8.125,-46.281 h -32.719 z"
             style="fill:#aa0000"
             id="path4050"
             inkscape:connector-curvature="0"
             sodipodi:nodetypes="cccccccccccccccccccccccccccccccccccccccccccccccccccccccccccccc" /></g><circle
           style="fill:#ffffff;stroke-width:0.75"
           id="path3989"
           cx="510.34644"
           cy="-470.38492"
           r="103.78474"
           transform="scale(1,-1)"
           inkscape:export-filename="/home/bartek/AndroidStudioProjects/GaslandsBuilder/pngs/piston_remove.png"
           inkscape:export-xdpi="96"
           inkscape:export-ydpi="96" /></g><g
         transform="matrix(0.44761817,0.44761817,-0.44761817,0.44761817,417.02931,241.08724)"
         id="g4827"
         style="fill:#aa0000"><g
           transform="matrix(0.64714348,0,0,0.64714348,89.084326,68.029143)"
           id="g4817"
           style="fill:#aa0000"><path
             id="path4811"
             d="m 152.66901,162.65844 c 0,-12.24825 9.9645,-22.212 22.212,-22.212 12.2475,0 22.212,9.9645 22.212,22.212 0,12.2475 -9.9645,22.212 -22.212,22.212 -12.2475,0 -22.212,-9.96375 -22.212,-22.212 z m 30.924,0 c 0,-4.80375 -3.90825,-8.712 -8.712,-8.712 -4.80375,0 -8.712,3.90825 -8.712,8.712 0,4.80375 3.90825,8.712 8.712,8.712 4.80375,0 8.712,-3.90825 8.712,-8.712 z"
             inkscape:connector-curvature="0"
             style="fill:#aa0000;stroke-width:0.75" /><path
             sodipodi:nodetypes="ssssssssss"
             id="path4813"
             d="m 174.88176,507.38593 c -11.13525,0 -20.1945,-9.05925 -20.1945,-20.1945 0,-11.13525 9.05925,-20.1945 20.1945,-20.1945 11.13525,0 20.19375,9.05925 20.19375,20.1945 0,11.13525 -9.05925,20.1945 -20.19375,20.1945 z m 0,-26.889 c -3.6915,0 -6.6945,3.003 -6.6945,6.6945 0,3.6915 3.003,6.6945 6.6945,6.6945 3.69075,0 6.69375,-3.003 6.69375,-6.6945 0,-3.6915 -3.003,-6.6945 -6.69375,-6.6945 z"
             inkscape:connector-curvature="0"
             style="fill:#aa0000;stroke-width:0.75" /><path
             sodipodi:nodetypes="sssssssccsssssssccsssssscccccccccccsssccccccccsscccccc"
             id="path4815"
             d="M 238.76826,577.66093 H 110.9945 c -3.72825,0 -6.75,-3.0225 -6.75,-6.75 V 431.59918 c 0,-3.72825 3.02175,-6.75 6.75,-6.75 h 28.64025 c 3.72826,0 6.75001,3.02175 6.75001,6.75 0,7.728 4.662,14.38425 11.319,17.3145 l -3.79725,-239.03224 c -0.20025,-6.96075 -5.81175,-12.41325 -12.77551,-12.41325 -3.72825,0 -6.75,-3.02175 -6.75,-6.75 v -29.988 c 0,-22.332 18.16876,-40.5 40.50076,-40.5 22.332,0 40.5,18.16875 40.5,40.5 v 29.988 c 0,3.72825 -3.02175,6.75 -6.75,6.75 -6.96375,0 -12.57525,5.4525 -12.7755,12.41325 l -3.79725,239.03224 c 6.657,-2.93025 11.319,-9.5865 11.319,-17.3145 0,-3.72825 3.02175,-6.75 6.75,-6.75 h 28.64025 c 3.72825,0 6.75,3.02175 6.75,6.75 v 139.31175 c 0,3.7275 -3.02175,6.75 -6.75,6.75 z m -6.75,-13.5 v -7.14675 H 117.7445 v 7.14675 z m 0,-20.64675 v -8.2935 H 117.7445 v 8.2935 z m -30.1365,-358.68649 v -24.0975 c 0,-14.88825 -12.1125,-27 -27.00075,-27 -14.88825,0 -27,12.1125 -27,27 v 24.09825 c 11.03775,2.88075 19.1745,12.6885 19.5195,24.675 l 3.85125,241.00624 h 7.25925 l 3.85125,-241.00624 v -0.0105 c 0.34425,-11.9775 8.48175,-21.7845 19.5195,-24.66525 z m 14.28975,253.52149 c -3.11325,14.643 -16.146,25.6605 -31.70325,25.6605 h -19.173 c -15.558,0 -28.59001,-11.01675 -31.70326,-25.6605 h -15.84675 v 83.3715 h 114.27451 v -83.3715 z"
             inkscape:connector-curvature="0"
             style="fill:#aa0000;stroke-width:0.75" /></g><g
           id="g4825"
           transform="matrix(0,-0.64714348,0.64714348,0,-23.560173,407.02033)"
           style="fill:#aa0000"><path
             style="fill:#aa0000;stroke-width:0.75"
             inkscape:connector-curvature="0"
             d="m 152.66901,162.65844 c 0,-12.24825 9.9645,-22.212 22.212,-22.212 12.2475,0 22.212,9.9645 22.212,22.212 0,12.2475 -9.9645,22.212 -22.212,22.212 -12.2475,0 -22.212,-9.96375 -22.212,-22.212 z m 30.924,0 c 0,-4.80375 -3.90825,-8.712 -8.712,-8.712 -4.80375,0 -8.712,3.90825 -8.712,8.712 0,4.80375 3.90825,8.712 8.712,8.712 4.80375,0 8.712,-3.90825 8.712,-8.712 z"
             id="path4819" /><path
             style="fill:#aa0000;stroke-width:0.75"
             inkscape:connector-curvature="0"
             d="m 174.88176,507.38593 c -11.13525,0 -20.1945,-9.05925 -20.1945,-20.1945 0,-11.13525 9.05925,-20.1945 20.1945,-20.1945 11.13525,0 20.19375,9.05925 20.19375,20.1945 0,11.13525 -9.05925,20.1945 -20.19375,20.1945 z m 0,-26.889 c -3.6915,0 -6.6945,3.003 -6.6945,6.6945 0,3.6915 3.003,6.6945 6.6945,6.6945 3.69075,0 6.69375,-3.003 6.69375,-6.6945 0,-3.6915 -3.003,-6.6945 -6.69375,-6.6945 z"
             id="path4821"
             sodipodi:nodetypes="ssssssssss" /><path
             style="fill:#aa0000;stroke-width:0.75"
             inkscape:connector-curvature="0"
             d="M 238.76826,577.66093 H 110.9945 c -3.72825,0 -6.75,-3.0225 -6.75,-6.75 V 431.59918 c 0,-3.72825 3.02175,-6.75 6.75,-6.75 h 28.64025 c 3.72826,0 6.75001,3.02175 6.75001,6.75 0,7.728 4.662,14.38425 11.319,17.3145 l -3.79725,-239.03224 c -0.20025,-6.96075 -5.81175,-12.41325 -12.77551,-12.41325 -3.72825,0 -6.75,-3.02175 -6.75,-6.75 v -29.988 c 0,-22.332 18.16876,-40.5 40.50076,-40.5 22.332,0 40.5,18.16875 40.5,40.5 v 29.988 c 0,3.72825 -3.02175,6.75 -6.75,6.75 -6.96375,0 -12.57525,5.4525 -12.7755,12.41325 l -3.79725,239.03224 c 6.657,-2.93025 11.319,-9.5865 11.319,-17.3145 0,-3.72825 3.02175,-6.75 6.75,-6.75 h 28.64025 c 3.72825,0 6.75,3.02175 6.75,6.75 v 139.31175 c 0,3.7275 -3.02175,6.75 -6.75,6.75 z m -6.75,-13.5 v -7.14675 H 117.7445 v 7.14675 z m 0,-20.64675 v -8.2935 H 117.7445 v 8.2935 z m -30.1365,-358.68649 v -24.0975 c 0,-14.88825 -12.1125,-27 -27.00075,-27 -14.88825,0 -27,12.1125 -27,27 v 24.09825 c 11.03775,2.88075 19.1745,12.6885 19.5195,24.675 l 3.85125,241.00624 h 7.25925 l 3.85125,-241.00624 v -0.0105 c 0.34425,-11.9775 8.48175,-21.7845 19.5195,-24.66525 z m 14.28975,253.52149 c -3.11325,14.643 -16.146,25.6605 -31.70325,25.6605 h -19.173 c -15.558,0 -28.59001,-11.01675 -31.70326,-25.6605 h -15.84675 v 83.3715 h 114.27451 v -83.3715 z"
             id="path4823"
             sodipodi:nodetypes="sssssssccsssssssccsssssscccccccccccsssccccccccsscccccc" /></g></g></g><g
       style="fill:#aa0000"
       transform="matrix(0.44761817,0.44761817,-0.44761817,0.44761817,335.60191,-29.406866)"
       id="g4844"
       inkscape:export-filename="/home/bartek/AndroidStudioProjects/GaslandsBuilder/pngs/piston_remove.png"
       inkscape:export-xdpi="96"
       inkscape:export-ydpi="96"><path
         style="fill:#aa0000;stroke-width:0.48535761"
         inkscape:connector-curvature="0"
         d="m -48.505432,720.2732 h -82.687948 c -2.41272,0 -4.36822,-1.95599 -4.36822,-4.36821 V 625.7503 c 0,-2.41272 1.9555,-4.36822 4.36822,-4.36822 h 18.53435 c 2.41272,0 4.36822,1.9555 4.36822,4.36822 0,5.00112 3.01699,9.30867 7.32502,11.20496 l -2.45737,-154.68815 c -0.12959,-4.50461 -3.76103,-8.03316 -8.26758,-8.03316 -2.41272,0 -4.36822,-1.9555 -4.36822,-4.36822 v -19.40654 c 0,-14.452 11.75779,-26.20931 26.209798,-26.20931 14.45201,0 26.20931,11.75779 26.20931,26.20931 v 19.40654 c 0,2.41272 -1.9555,4.36822 -4.36822,4.36822 -4.50654,0 -8.13799,3.52855 -8.26758,8.03316 l -2.45736,154.68815 c 4.30803,-1.89629 7.32501,-6.20384 7.32501,-11.20496 0,-2.41272 1.95551,-4.36822 4.36822,-4.36822 h 18.53435 c 2.41272,0 4.36822,1.9555 4.36822,4.36822 v 90.15469 c 0,2.41222 -1.9555,4.36821 -4.36822,4.36821 z"
         id="path3799"
         sodipodi:nodetypes="sssssssccsssssssccssssss" /><path
         sodipodi:nodetypes="sssssssccsssssssccssssss"
         id="path4840"
         d="m 66.651657,522.4282 v 82.68795 c 0,2.41272 -1.95599,4.36822 -4.36821,4.36822 h -90.15469 c -2.41272,0 -4.36822,-1.9555 -4.36822,-4.36822 V 586.5818 c 0,-2.41272 1.9555,-4.36822 4.36822,-4.36822 5.00112,0 9.30867,-3.01699 11.20496,-7.32502 l -154.688157,2.45737 c -4.50461,0.12959 -8.03316,3.76103 -8.03316,8.26758 0,2.41272 -1.9555,4.36822 -4.36822,4.36822 h -19.40654 c -14.452,0 -26.20931,-11.75779 -26.20931,-26.2098 0,-14.45201 11.75779,-26.20931 26.20931,-26.20931 h 19.40654 c 2.41272,0 4.36822,1.9555 4.36822,4.36822 0,4.50654 3.52855,8.13799 8.03316,8.26758 l 154.688157,2.45736 c -1.89629,-4.30803 -6.20384,-7.32501 -11.20496,-7.32501 -2.41272,0 -4.36822,-1.95551 -4.36822,-4.36822 V 522.4282 c 0,-2.41272 1.9555,-4.36822 4.36822,-4.36822 h 90.15469 c 2.41222,0 4.36821,1.9555 4.36821,4.36822 z"
         inkscape:connector-curvature="0"
         style="fill:#aa0000;stroke-width:0.48535761" /></g></g></svg>